<svg xmlns="http://www.w3.org/2000/svg" width="33.523" height="32.034" viewBox="0 0 33.523 32.034">
  <path id="Icon_zocial-linkedin" data-name="Icon zocial-linkedin" d="M-.18,3.937A3.484,3.484,0,0,1,.953,1.268,4.155,4.155,0,0,1,3.9.216a4.031,4.031,0,0,1,2.88,1.035A3.65,3.65,0,0,1,7.91,4.034a3.407,3.407,0,0,1-1.1,2.589A4.162,4.162,0,0,1,3.832,7.691H3.8A3.96,3.96,0,0,1,.92,6.623,3.586,3.586,0,0,1-.18,3.937ZM.241,32.25V10.635H7.424V32.25H.241Zm11.164,0h7.183V20.181a4.658,4.658,0,0,1,.259-1.747,4.693,4.693,0,0,1,1.375-1.861,3.516,3.516,0,0,1,2.314-.76q3.624,0,3.624,4.886V32.25h7.183V19.857q0-4.789-2.265-7.264a7.727,7.727,0,0,0-5.986-2.475,7.343,7.343,0,0,0-6.5,3.592v.065h-.032l.032-.065V10.635H11.4q.065,1.035.065,6.439T11.4,32.25Z" transform="translate(0.18 -0.216)" fill="#fff"/>
</svg>
