<?xml version="1.0" encoding="UTF-8"?>
<!DOCTYPE svg PUBLIC "-//W3C//DTD SVG 1.1//EN" "http://www.w3.org/Graphics/SVG/1.1/DTD/svg11.dtd">
<svg xmlns="http://www.w3.org/2000/svg" version="1.1" width="512px" height="512px" style="shape-rendering:geometricPrecision; text-rendering:geometricPrecision; image-rendering:optimizeQuality; fill-rule:evenodd; clip-rule:evenodd" xmlns:xlink="http://www.w3.org/1999/xlink">
<g><path style="opacity:0.972" fill="white" d="M 511.5,293.5 C 511.5,307.833 511.5,322.167 511.5,336.5C 508.009,367.783 499.509,397.783 486,426.5C 479.063,439.058 468.563,446.891 454.5,450C 321.833,450.667 189.167,450.667 56.5,450C 38.6369,445.805 26.8036,434.972 21,417.5C 9.80175,391.097 2.63509,363.764 -0.5,335.5C -0.5,321.5 -0.5,307.5 -0.5,293.5C 9.82151,205.975 52.4882,139.475 127.5,94C 197.449,55.9669 270.115,49.9669 345.5,76C 423.881,107.718 476.048,163.885 502,244.5C 506.414,260.733 509.581,277.066 511.5,293.5 Z M 236.5,91.5 C 237.833,91.5 239.167,91.5 240.5,91.5C 240.5,101.167 240.5,110.833 240.5,120.5C 198.363,124.163 161.197,139.496 129,166.5C 122.167,159.667 115.333,152.833 108.5,146C 145.438,114.516 188.104,96.3497 236.5,91.5 Z M 270.5,91.5 C 320.539,95.5548 364.539,113.722 402.5,146C 395.667,152.833 388.833,159.667 382,166.5C 349.803,139.496 312.637,124.163 270.5,120.5C 270.5,110.833 270.5,101.167 270.5,91.5 Z M 237.5,151.5 C 307.263,147.795 360.763,175.128 398,233.5C 422.387,279.109 426.22,326.443 409.5,375.5C 411.31,387.744 418.31,392.578 430.5,390C 433.562,388.939 436.062,387.106 438,384.5C 445,367.166 449.167,349.166 450.5,330.5C 460.5,330.5 470.5,330.5 480.5,330.5C 477.915,360.748 469.582,389.248 455.5,416C 453.833,417 452.167,418 450.5,419C 385.53,420.156 320.53,420.656 255.5,420.5C 190.47,420.656 125.47,420.156 60.5,419C 57.2648,417.64 54.7648,415.473 53,412.5C 40.9828,386.766 33.4828,359.766 30.5,331.5C 40.4778,330.501 50.4778,330.168 60.5,330.5C 61.8335,349.166 66.0001,367.166 73,384.5C 77.9683,390.115 84.135,391.948 91.5,390C 97.6606,387.196 100.994,382.363 101.5,375.5C 80.0931,310.494 91.9265,252.494 137,201.5C 164.969,173.766 198.469,157.099 237.5,151.5 Z M 85.5,168.5 C 92.6315,175.131 99.6315,181.964 106.5,189C 79.496,221.197 64.1627,258.363 60.5,300.5C 50.5,300.5 40.5,300.5 30.5,300.5C 34.4483,250.275 52.7817,206.275 85.5,168.5 Z M 424.5,168.5 C 457.887,205.974 476.554,249.974 480.5,300.5C 470.5,300.5 460.5,300.5 450.5,300.5C 446.837,258.363 431.504,221.197 404.5,189C 411.369,182.298 418.036,175.465 424.5,168.5 Z M 314.5,300.5 C 298.042,319.462 281.375,338.295 264.5,357C 254.782,361.996 247.282,359.83 242,350.5C 240.591,344.684 241.758,339.517 245.5,335C 268.243,322.962 291.243,311.462 314.5,300.5 Z"/></g>
<g><path style="opacity:0.963" fill="white" d="M 379.5,232.5 C 395.205,233.591 400.705,241.591 396,256.5C 359.204,298.298 322.037,339.798 284.5,381C 268.797,391.688 252.13,393.354 234.5,386C 215.547,374.923 207.714,358.423 211,336.5C 212.948,325.769 218.115,316.936 226.5,310C 277.281,283.61 328.281,257.777 379.5,232.5 Z M 314.5,300.5 C 291.243,311.462 268.243,322.962 245.5,335C 241.758,339.517 240.591,344.684 242,350.5C 247.282,359.83 254.782,361.996 264.5,357C 281.375,338.295 298.042,319.462 314.5,300.5 Z"/></g>
</svg>
