<svg xmlns="http://www.w3.org/2000/svg" width="42.155" height="42.23" viewBox="0 0 42.155 42.23">
  <path id="Icon_feather-phone-call" data-name="Icon feather-phone-call" d="M27.322,8.967A9.334,9.334,0,0,1,34.7,16.342M27.322,1.5A16.8,16.8,0,0,1,42.163,16.323M40.3,31.22v5.6a3.734,3.734,0,0,1-4.07,3.734,36.945,36.945,0,0,1-16.111-5.731,36.4,36.4,0,0,1-11.2-11.2A36.945,36.945,0,0,1,3.183,7.437,3.734,3.734,0,0,1,6.9,3.367h5.6a3.734,3.734,0,0,1,3.734,3.211,23.97,23.97,0,0,0,1.307,5.246,3.734,3.734,0,0,1-.84,3.939l-2.371,2.371a29.87,29.87,0,0,0,11.2,11.2L27.9,26.964a3.734,3.734,0,0,1,3.939-.84,23.971,23.971,0,0,0,5.246,1.307A3.734,3.734,0,0,1,40.3,31.22Z" transform="translate(-1.666 0.156)" fill="none" stroke="#037ebb" stroke-linecap="round" stroke-linejoin="round" stroke-width="3"/>
</svg>
