<svg xmlns="http://www.w3.org/2000/svg" width="40.023" height="35.031" viewBox="0 0 40.023 35.031">
  <g id="mortarboard" transform="translate(-0.169 480)">
    <path id="Path_14" data-name="Path 14" d="M10.517-476.849C5.309-475.113.946-473.635.8-473.565a1.15,1.15,0,0,0-.258,1.877c.164.141,2.932,1.095,9.868,3.409,5.3,1.767,9.712,3.214,9.8,3.214.266,0,19.173-6.334,19.447-6.514a1.287,1.287,0,0,0,.532-.954,1.287,1.287,0,0,0-.532-.954c-.3-.2-19.2-6.514-19.486-6.514C20.064-480,15.725-478.577,10.517-476.849Z" transform="translate(0)" fill="#fff"/>
    <path id="Path_15" data-name="Path 15" d="M421.581-330.533l-1.079.36V-318.5l-.328.149a3.772,3.772,0,0,0-2.017,2.275c-.149.477-.156.727-.156,4.082,0,4.066-.016,3.957.626,4.285.336.18.4.18,3.042.18,2.565,0,2.713-.008,3.026-.164a.947.947,0,0,0,.493-.493c.156-.321.164-.461.164-3.746,0-2.229-.031-3.55-.086-3.824a3.918,3.918,0,0,0-1.916-2.5l-.5-.258v-6.2a56.927,56.927,0,0,0-.094-6.185C422.7-330.9,422.167-330.728,421.581-330.533Z" transform="translate(-385.158 -137.441)" fill="#fff"/>
    <path id="Path_16" data-name="Path 16" d="M96-306.035c0,2.189.039,4.113.078,4.277.164.735,2.549,2.659,4.574,3.7a17.248,17.248,0,0,0,13.41.985,20.243,20.243,0,0,0,3.753-1.822c1.626-1.071,3.011-2.33,3.128-2.862.063-.258.117-8.242.055-8.242-.008,0-2.659.884-5.88,1.963l-5.865,1.971h-1.486l-5.865-1.971c-3.222-1.079-5.872-1.963-5.88-1.963S96-308.217,96-306.035Z" transform="translate(-88.337 -156.707)" fill="#fff"/>
  </g>
</svg>
