<svg xmlns="http://www.w3.org/2000/svg" width="39.78" height="39.78" viewBox="0 0 39.78 39.78">
  <g id="office-building" transform="translate(0 512)">
    <path id="Path_9" data-name="Path 9" d="M95.742-510.873v1.127H83v8.78h26.882v-8.78H98.073V-512H95.742ZM88.2-506.981a1.788,1.788,0,0,1,.054,3.263,2.074,2.074,0,0,1-2.719-.862,2.208,2.208,0,0,1-.047-1.4A2.063,2.063,0,0,1,88.2-506.981Zm14.42.023a1.568,1.568,0,0,1,.458.311c.155.171.155.171-.186.513l-.334.342-.225-.186a.828.828,0,0,0-1.383.575.825.825,0,0,0,.831.94.973.973,0,0,0,.653-.334c.07-.109.777.5.754.637a1.074,1.074,0,0,1-.4.35,2.25,2.25,0,0,1-2.245-.031,1.853,1.853,0,0,1-.35-2.688A2.185,2.185,0,0,1,102.618-506.958Zm-9.556.319v.427l-.831.023-.839.023v.528l.723.023.715.023.023.443.023.451H91.391v1.088H90.226v-3.5l1.422.016,1.414.023Zm3.691,0v.466H95.12v.536l.723.023.715.023.023.443.023.451H95.12v1.088H93.955v-3.5h2.8Zm2.082,1.3.016,1.733H97.607V-505.3a14.887,14.887,0,0,1,.054-1.756,2.083,2.083,0,0,1,.606-.031l.544.023Zm8.1-1.3v.466h-1.709v.194c0,.194,0,.194.738.194h.738v.855h-1.476v.466h1.787v.855h-2.952V-505.3a14.6,14.6,0,0,1,.054-1.748,9.989,9.989,0,0,1,1.437-.054h1.383Z" transform="translate(-76.551)" fill="#fff"/>
    <path id="Path_10" data-name="Path 10" d="M129.258-436.936c-.218.225-.233.272-.2.668.047.513.218.723.66.785a.83.83,0,0,0,.8-1.173A.736.736,0,0,0,129.258-436.936Z" transform="translate(-119.017 -69.004)" fill="#fff"/>
    <path id="Path_11" data-name="Path 11" d="M148-326.792v13.208h7.381v-4.739h2.331v4.739H164.7V-340H148Zm5.035-9.114-.023,1.15-1.142.023-1.15.023v-2.339h2.339Zm4.662,0-.023,1.15-1.142.023-1.15.023v-2.339h2.339Zm4.662,0-.023,1.15-1.142.023-1.15.023v-2.339h2.339Zm-9.323,4.662-.023,1.15-1.142.023-1.15.023v-2.339h2.339Zm4.662,0-.023,1.15-1.142.023-1.15.023v-2.339h2.339Zm4.662,0-.023,1.15-1.142.023-1.15.023v-2.339h2.339Zm-9.323,4.584-.023,1.15-1.142.023-1.15.023V-327.8h2.339Zm4.662,0-.023,1.15-1.142.023-1.15.023V-327.8h2.339Zm4.662,0-.023,1.15-1.142.023-1.15.023V-327.8h2.339ZM153.035-322l-.023,1.15-1.142.023-1.15.023v-2.339h2.339Zm4.662,0-.023,1.15-1.142.023-1.15.023v-2.339h2.339Zm4.662,0-.023,1.15-1.142.023-1.15.023v-2.339h2.339Z" transform="translate(-136.501 -158.636)" fill="#fff"/>
    <path id="Path_12" data-name="Path 12" d="M0-300.835v1.165H2.331v21.133H9.168l-.016-3.558-.023-3.551L8.1-285.669l-1.033-.023v-2.323h2.1v-2.331H7.07v-2.323l1.033-.023,1.026-.023.023-1.15.023-1.142H7.07v-2.323l1.033-.023,1.026-.023.023-2.315L9.168-302H0Z" transform="translate(0 -193.684)" fill="#fff"/>
    <path id="Path_13" data-name="Path 13" d="M393-299.669v2.331h2.175v2.331H393v2.331h2.175v2.331H393v2.331h2.175v2.331H393v7.148h6.915v-21.133h2.331V-302H393Z" transform="translate(-362.466 -193.684)" fill="#fff"/>
  </g>
</svg>
