<svg xmlns="http://www.w3.org/2000/svg" width="37.811" height="37.874" viewBox="0 0 37.811 37.874">
  <g id="restaurant" transform="translate(-0.54 512)">
    <path id="Path_17" data-name="Path 17" d="M30.621-511.726a22.447,22.447,0,0,0-.858,2.768,9.219,9.219,0,0,0-.163,2.324,6.571,6.571,0,0,0,.2,2.279,9.788,9.788,0,0,0,.444,1.295c.54,1.258.518,1.236,8,8.732l7.037,7.045.9-.9.9-.9,5.972,6.682c3.286,3.678,6.149,6.867,6.357,7.089a3.392,3.392,0,0,0,3.115,1.125,3.317,3.317,0,0,0,2.4-4.743c-.215-.451-1.339-1.591-16.524-16.783L32.109-512H30.74Z" transform="translate(-26.91)" fill="#fff"/>
    <path id="Path_18" data-name="Path 18" d="M280.448-506.915c-2.242,2.25-4.181,4.24-4.3,4.425a5.889,5.889,0,0,0-1.014,2.738,6.574,6.574,0,0,1-.185.969c-.067.178.067.333,2.464,2.723l2.538,2.538.562-.118a5.413,5.413,0,0,1,.762-.118,5.408,5.408,0,0,0,1.88-.57l.7-.34,4.292-4.277,4.292-4.284-.74-.74a6.1,6.1,0,0,0-.814-.74c-.037,0-1.413,1.339-3.049,2.975l-2.982,2.982-.777-.777-.777-.777,3.012-3.012,3.019-3.019-.8-.792-.792-.8-3.019,3.019-3.012,3.012-.777-.777-.777-.777,2.982-2.982c1.635-1.635,2.975-3.012,2.975-3.049A11.3,11.3,0,0,0,284.6-511C284.555-511,282.69-509.157,280.448-506.915Z" transform="translate(-254.093 -0.926)" fill="#fff"/>
    <path id="Path_19" data-name="Path 19" d="M6.56-214.472c-5.136,5.15-5.528,5.565-5.72,5.994a3.317,3.317,0,0,0,2.168,4.61A4.558,4.558,0,0,0,4.8-203.9c.8-.244.888-.326,6.5-5.935l5.513-5.506-2.331-2.331c-1.28-1.28-2.346-2.331-2.368-2.331S9.594-217.514,6.56-214.472Z" transform="translate(0 -270.392)" fill="#fff"/>
  </g>
</svg>
