<svg xmlns="http://www.w3.org/2000/svg" width="36.127" height="37.233" viewBox="0 0 36.127 37.233">
  <g id="store" transform="translate(-38.943 479.931)">
    <path id="Path_6" data-name="Path 6" d="M46.013-479.787a4.044,4.044,0,0,0-2.46,1.937c-.424.831-4.214,9.251-4.405,9.8a3.976,3.976,0,0,0,1.239,4.306,5.65,5.65,0,0,0,6.941-.241l.532-.424.216.208a7.143,7.143,0,0,0,1.92,1.13,6.1,6.1,0,0,0,2.46.424,6.333,6.333,0,0,0,4.231-1.613c.341-.266.258-.291,1.081.357a6.943,6.943,0,0,0,2.327,1.105,7.327,7.327,0,0,0,3.5-.133,7.108,7.108,0,0,0,2.07-1.081l.49-.374.507.416a5.733,5.733,0,0,0,6.326.632,4.008,4.008,0,0,0,2.036-2.934,4.674,4.674,0,0,0-.582-2.851c-.266-.623-1.205-2.809-2.078-4.871s-1.7-3.915-1.837-4.123a4.184,4.184,0,0,0-1.48-1.355c-.948-.482-.441-.465-11.936-.457C47.451-479.929,46.5-479.912,46.013-479.787Z" transform="translate(0 0)" fill="#fff"/>
    <path id="Path_7" data-name="Path 7" d="M79.419-253.776a8.6,8.6,0,0,1-4.073.939,8.675,8.675,0,0,1-3.94-.864,2.805,2.805,0,0,0-.565-.216,2.449,2.449,0,0,0-.549.216,7.472,7.472,0,0,1-3.624.781,9.192,9.192,0,0,1-1.629-.125c-.316-.075-.682-.15-.806-.183l-.233-.05v7.107c0,7.714-.008,7.539.465,8.478a4.522,4.522,0,0,0,1.6,1.637c.923.49,1.106.507,5.012.507h3.549l.025-5.012.025-5,.208-.416a2.925,2.925,0,0,1,1.288-1.288l.416-.208h6.733l.424.224a2.42,2.42,0,0,1,1.205,1.164l.283.524.025,5,.025,5.012h3.549c3.907,0,4.09-.017,5.012-.507a4.2,4.2,0,0,0,1.987-2.726c.05-.283.083-3.042.083-7.473v-7.024l-.224.05c-.133.033-.515.108-.856.183a8.516,8.516,0,0,1-1.621.133,7.314,7.314,0,0,1-3.466-.731l-.64-.3-.69.291a8.633,8.633,0,0,1-3.849.815,8.558,8.558,0,0,1-4.048-.923,2.8,2.8,0,0,0-.582-.241A3.291,3.291,0,0,0,79.419-253.776Zm-6.725,3.815a1.174,1.174,0,0,1,.574,1.114,1.174,1.174,0,0,1-.574,1.114c-.216.166-.357.175-2.527.2a20.71,20.71,0,0,1-2.61-.058,1.344,1.344,0,0,1-.59-2.095c.407-.474.5-.49,3.117-.465C72.345-250.135,72.478-250.127,72.694-249.96Z" transform="translate(-22.974 -207.152)" fill="#fff"/>
    <path id="Path_8" data-name="Path 8" d="M224-139.345v4.655h5.32V-144H224Z" transform="translate(-169.675 -308.008)" fill="#fff"/>
  </g>
</svg>
