<svg xmlns="http://www.w3.org/2000/svg" width="38.102" height="38.096" viewBox="0 0 38.102 38.096">
  <g id="warehouse-_1_" transform="translate(0 511.917)">
    <path id="Path_20" data-name="Path 20" d="M18.6-511.827c-.112.052-4.272,2.895-9.25,6.333-7.866,5.418-9.072,6.273-9.2,6.526C0-498.692,0-498.461,0-486.949c0,9.072.022,11.8.089,12.041a1.776,1.776,0,0,0,1,1,11.7,11.7,0,0,0,1.994.089H4.763V-483.5c0-8.58.015-9.712.119-9.957a1.7,1.7,0,0,1,.789-.841c.268-.134.633-.141,13.38-.141s13.112.007,13.38.141a1.7,1.7,0,0,1,.789.841c.1.246.119,1.377.119,9.957v9.674h1.682a11.7,11.7,0,0,0,1.994-.089,1.776,1.776,0,0,0,1-1c.067-.238.089-2.969.089-12.056v-11.751l-.171-.29c-.134-.246-1.615-1.287-9.265-6.556-5.008-3.453-9.183-6.3-9.265-6.318A1.33,1.33,0,0,0,18.6-511.827Z" fill="#fff"/>
    <path id="Path_21" data-name="Path 21" d="M192.564-234.888c-.476.208-.476.186-.454,3.981l.022,3.423.208.2.2.208h8.632l.2-.208.208-.2.022-3.423c.015-3.014.007-3.453-.1-3.654-.2-.387-.461-.439-2.039-.439h-1.406l-.03.811c-.015.685-.045.848-.179,1.027a1.183,1.183,0,0,1-1.994,0c-.134-.179-.164-.342-.179-1.027l-.03-.811h-1.421A6,6,0,0,0,192.564-234.888Z" transform="translate(-177.807 -256.31)" fill="#fff"/>
    <path id="Path_22" data-name="Path 22" d="M117.469-106.881c-.461.231-.469.26-.469,3.855,0,3.572.007,3.654.439,3.87.193.1.752.119,4.361.119,3.736,0,4.167-.015,4.353-.127a.79.79,0,0,0,.29-.3,33.543,33.543,0,0,0,.082-3.587c0-3.326,0-3.416-.156-3.6-.238-.305-.566-.357-2.039-.335l-1.34.022-.037.819c-.03.692-.06.856-.2,1.049a1.235,1.235,0,0,1-1.593.305c-.417-.275-.588-.707-.588-1.518V-107h-1.429A4.939,4.939,0,0,0,117.469-106.881Z" transform="translate(-108.293 -374.784)" fill="#fff"/>
    <path id="Path_23" data-name="Path 23" d="M267.476-106.9c-.491.216-.476.1-.476,3.855a33.446,33.446,0,0,0,.082,3.58.79.79,0,0,0,.29.3c.186.112.618.127,4.353.127,3.609,0,4.167-.015,4.361-.119.432-.216.439-.3.439-3.87,0-3.609,0-3.632-.484-3.855a4.7,4.7,0,0,0-1.66-.119h-1.414l-.03.767c-.03.863-.149,1.161-.58,1.444a1.229,1.229,0,0,1-1.585-.305c-.141-.193-.171-.357-.2-1.049l-.037-.819-1.414-.015A5.7,5.7,0,0,0,267.476-106.9Z" transform="translate(-247.13 -374.784)" fill="#fff"/>
  </g>
</svg>
